# xmcd
#
# Track frame offsets:
#	150
#	13377
#	26453
#	40994
#	49932
#	61619
#	74822
#	87122
#	98617
#	110615
#	124341
#	137115
#	150584
#	165646
#	177458
#	191993
#	203309
#	217110
#	229882
#	245007
#	256455
#	268091
#	280783
#	297607
#	313085
#
# Disc length: 4330 seconds
#
# Revision: 0
# Processed by: cddbd v1.5.2PL0 Copyright (c) Steve Scherf et al.
# Submitted via: EasyCDDAExtractor 9.0.0.1
#
DISCID=8310e819
DTITLE=Various Artist - 75 Love Songs cd3
DYEAR=2006
DGENRE=Oldies
TTITLE0=Dean Martin - Beside You
TTITLE1=Les Paul and Mary Ford - I'm  a Fool to Care
TTITLE2=Doris Day - April in Paris
TTITLE3=The Four Coins - I Love You Madly
TTITLE4=Frankie Laine - Rose, Rose, I Love You
TTITLE5=Gary and Bing Crosby - Sam's Song
TTITLE6=Jaye P. Morgan - That's All I Want From You
TTITLE7=Kitty Wells and Red Foley - Make Believe
TTITLE8=Les Paul and Mary Ford - Hummingbird
TTITLE9=Kitty Kallen - Little Things Mean a Lot
TTITLE10=Dean Martin and helen O'Connell - We Never Talk Much
TTITLE11=Billy Vaughn - Melody of Love
TTITLE12=Bing Crosby and The Andrew Sisters - Have I Told You Lately That I Love
TTITLE12=You
TTITLE13=Frank Sinatra - What Is this Thing Called Love
TTITLE14=David Withfield - Cara Mia
TTITLE15=Eddie Fisher - Count Your Blessings Instead of Sheep
TTITLE16=Gisele Mckenzie - Hard To Get
TTITLE17=Dean Martin and Peggy Lee - You Was
TTITLE18=Gordon Jenkins - Goodnight Irene
TTITLE19=Johnny Ace - Pledging My Love
TTITLE20=Eddy Arnold - Bouquet of Roses
TTITLE21=Kitty Wells and Red Foley - You and Me
TTITLE22=Frank Sinatra - This Love of Mine
TTITLE23=Nat King Cole - Unforgettable
TTITLE24=Pat Boone and Billy Vaughn - Two Hearts
EXTD=
EXTT0=
EXTT1=
EXTT2=
EXTT3=
EXTT4=
EXTT5=
EXTT6=
EXTT7=
EXTT8=
EXTT9=
EXTT10=
EXTT11=
EXTT12=
EXTT13=
EXTT14=
EXTT15=
EXTT16=
EXTT17=
EXTT18=
EXTT19=
EXTT20=
EXTT21=
EXTT22=
EXTT23=
EXTT24=
PLAYORDER=
